<svg width="25" height="24" viewBox="0 0 25 24" fill="none" xmlns="http://www.w3.org/2000/svg">
<g clip-path="url(#clip0_1_1867)">
<path d="M20.08 7.5L17.81 5.23C17.88 4.81 17.99 4.42 18.13 4.08C18.21 3.9 18.25 3.71 18.25 3.5C18.25 2.67 17.58 2 16.75 2C15.11 2 13.66 2.79 12.75 4H7.75C4.71 4 2.25 6.46 2.25 9.5C2.25 12.54 4.75 21 4.75 21H10.25V19H12.25V21H17.75L19.43 15.41L22.25 14.47V7.5H20.08ZM13.25 9H8.25V7H13.25V9ZM16.25 11C15.7 11 15.25 10.55 15.25 10C15.25 9.45 15.7 9 16.25 9C16.8 9 17.25 9.45 17.25 10C17.25 10.55 16.8 11 16.25 11Z" fill="#FA8C16"/>
</g>
<defs>
<clipPath id="clip0_1_1867">
<rect width="24" height="24" fill="white" transform="translate(0.25)"/>
</clipPath>
</defs>
</svg>
